<?xml version="1.0" encoding="UTF-8" standalone="no"?>
<!-- Created with Inkscape (http://www.inkscape.org/) -->

<svg
   width="89.823364mm"
   height="125.99176mm"
   viewBox="0 0 89.823364 125.99176"
   version="1.1"
   id="svg1861"
   xml:space="preserve"
   xmlns:inkscape="http://www.inkscape.org/namespaces/inkscape"
   xmlns:sodipodi="http://sodipodi.sourceforge.net/DTD/sodipodi-0.dtd"
   xmlns="http://www.w3.org/2000/svg"
   xmlns:svg="http://www.w3.org/2000/svg"><sodipodi:namedview
     id="namedview1863"
     pagecolor="#ffffff"
     bordercolor="#000000"
     borderopacity="0.25"
     inkscape:showpageshadow="2"
     inkscape:pageopacity="0.0"
     inkscape:pagecheckerboard="0"
     inkscape:deskcolor="#d1d1d1"
     inkscape:document-units="mm"
     showgrid="false" /><defs
     id="defs1858"><clipPath
       clipPathUnits="userSpaceOnUse"
       id="clipPath2777"><path
         d="m 20042.3,1291.8 h -323.5 l 61.7,511.8 h 200 z"
         id="path2775" /></clipPath><linearGradient
       x1="0"
       y1="0"
       x2="1"
       y2="0"
       gradientUnits="userSpaceOnUse"
       gradientTransform="matrix(0,511.852,511.852,0,19880.5,1291.8)"
       spreadMethod="pad"
       id="linearGradient2787"><stop
         style="stop-opacity:1;stop-color:#cc841a"
         offset="0"
         id="stop2779" /><stop
         style="stop-opacity:1;stop-color:#8e461c"
         offset="0.746377"
         id="stop2781" /><stop
         style="stop-opacity:1;stop-color:#8e461c"
         offset="0.763285"
         id="stop2783" /><stop
         style="stop-opacity:1;stop-color:#8e461c"
         offset="1"
         id="stop2785" /></linearGradient><clipPath
       clipPathUnits="userSpaceOnUse"
       id="clipPath2797"><path
         d="m 20745.3,1985.9 c 82.7,0 479.8,-153.1 397,30.7 -86.5,192.3 -1257.4,1776.3 -1257.4,1776.3 0,0 -1170.9,-1584 -1257.5,-1776.3 -82.7,-183.8 99.3,-168.5 397.1,-30.7 0,0 -82.8,-321.5 336.4,-132.7 347,156.3 299.8,14.2 391,-129.1 108.6,-170.6 226.7,-100.6 392.2,134.2 165.4,234.8 215.1,-296 424.7,-91.8 77.9,75.9 93.7,219.4 176.5,219.4 z"
         id="path2795" /></clipPath><linearGradient
       x1="0"
       y1="0"
       x2="1"
       y2="0"
       gradientUnits="userSpaceOnUse"
       gradientTransform="matrix(0,-2163.2,-2163.2,0,19880.5,3792.9)"
       spreadMethod="pad"
       id="linearGradient2803"><stop
         style="stop-opacity:1;stop-color:#216e34"
         offset="0"
         id="stop2799" /><stop
         style="stop-opacity:1;stop-color:#43b26b"
         offset="1"
         id="stop2801" /></linearGradient><clipPath
       clipPathUnits="userSpaceOnUse"
       id="clipPath2813"><path
         d="m 20587.6,2597.6 c 67.6,0 392.3,-125.2 324.6,25 -70.7,157.3 -1028.1,1452.4 -1028.1,1452.4 0,0 -957.4,-1295.1 -1028.1,-1452.4 -67.7,-150.2 81.1,-137.7 324.6,-25 0,0 -67.6,-263 275.1,-108.5 283.7,127.8 245.6,49 333.7,-58.5 99.2,-121 171.3,-129.3 306.6,62.6 135.3,192 175.9,-242 347.2,-75.1 63.7,62.1 76.7,179.5 144.4,179.5 z"
         id="path2811" /></clipPath><linearGradient
       x1="0"
       y1="0"
       x2="1"
       y2="0"
       gradientUnits="userSpaceOnUse"
       gradientTransform="matrix(0,-1731.3,-1731.3,0,19880.5,4075)"
       spreadMethod="pad"
       id="linearGradient2819"><stop
         style="stop-opacity:1;stop-color:#216e34"
         offset="0"
         id="stop2815" /><stop
         style="stop-opacity:1;stop-color:#43b26b"
         offset="1"
         id="stop2817" /></linearGradient><clipPath
       clipPathUnits="userSpaceOnUse"
       id="clipPath2829"><path
         d="m 20467.4,3199.6 c 56.1,0 325.6,-103.9 269.5,20.8 -58.8,130.5 -853.4,1205.52 -853.4,1205.52 0,0 -794.6,-1075.02 -853.4,-1205.52 -56.1,-124.7 67.4,-114.3 269.4,-20.8 0,0 -56.1,-218.3 228.4,-90.1 235.4,106.1 203.9,40.7 277,-48.5 82.3,-100.5 142.2,-107.3 254.5,52 112.3,159.3 145.9,-200.9 288.2,-62.4 52.9,51.6 63.6,149 119.8,149 z"
         id="path2827" /></clipPath><linearGradient
       x1="0"
       y1="0"
       x2="1"
       y2="0"
       gradientUnits="userSpaceOnUse"
       gradientTransform="matrix(0,-1437.09,-1437.09,0,19880.5,4425.92)"
       spreadMethod="pad"
       id="linearGradient2835"><stop
         style="stop-opacity:1;stop-color:#216e34"
         offset="0"
         id="stop2831" /><stop
         style="stop-opacity:1;stop-color:#43b26b"
         offset="1"
         id="stop2833" /></linearGradient><clipPath
       clipPathUnits="userSpaceOnUse"
       id="clipPath2845"><path
         d="m 20386.6,3720.5 c 48.4,0 280.8,-96.8 232.4,19.4 -50.6,121.6 -735.9,1123.32 -735.9,1123.32 0,0 -685.3,-1001.72 -736,-1123.32 -48.4,-116.2 58.2,-106.5 232.4,-19.4 0,0 -48.4,-203.3 196.9,-83.9 203.1,98.9 175.9,38 238.9,-45.2 71,-93.5 122.6,-100 219.5,48.5 96.8,148.5 125.9,-187.3 248.5,-58.1 45.6,48 54.9,138.7 103.3,138.7 z"
         id="path2843" /></clipPath><linearGradient
       x1="0"
       y1="0"
       x2="1"
       y2="0"
       gradientUnits="userSpaceOnUse"
       gradientTransform="matrix(0,-1339.04,-1339.04,0,19880.5,4863.22)"
       spreadMethod="pad"
       id="linearGradient2851"><stop
         style="stop-opacity:1;stop-color:#216e34"
         offset="0"
         id="stop2847" /><stop
         style="stop-opacity:1;stop-color:#43b26b"
         offset="1"
         id="stop2849" /></linearGradient></defs><g
     id="g1875"
     transform="matrix(0.03527778,0,0,-0.03527778,-656.42824,171.56359)"><g
       id="g2771"><g
         id="g2773"
         clip-path="url(#clipPath2777)"><path
           d="m 20042.3,1291.8 h -323.5 l 61.7,511.8 h 200 l 61.8,-511.8"
           style="fill:url(#linearGradient2787);fill-opacity:1;fill-rule:nonzero;stroke:none"
           id="path2789" /></g></g><g
       id="g2791"><g
         id="g2793"
         clip-path="url(#clipPath2797)"><path
           d="m 20745.3,1985.9 c 82.7,0 479.8,-153.1 397,30.7 -86.5,192.3 -1257.4,1776.3 -1257.4,1776.3 0,0 -1170.9,-1584 -1257.5,-1776.3 -82.7,-183.8 99.3,-168.5 397.1,-30.7 0,0 -82.8,-321.5 336.4,-132.7 347,156.3 299.8,14.2 391,-129.1 108.6,-170.6 226.7,-100.6 392.2,134.2 165.4,234.8 215.1,-296 424.7,-91.8 77.9,75.9 93.7,219.4 176.5,219.4"
           style="fill:url(#linearGradient2803);fill-opacity:1;fill-rule:nonzero;stroke:none"
           id="path2805" /></g></g><g
       id="g2807"><g
         id="g2809"
         clip-path="url(#clipPath2813)"><path
           d="m 20587.6,2597.6 c 67.6,0 392.3,-125.2 324.6,25 -70.7,157.3 -1028.1,1452.4 -1028.1,1452.4 0,0 -957.4,-1295.1 -1028.1,-1452.4 -67.7,-150.2 81.1,-137.7 324.6,-25 0,0 -67.6,-263 275.1,-108.5 283.7,127.8 245.6,49 333.7,-58.5 99.2,-121 171.3,-129.3 306.6,62.6 135.3,192 175.9,-242 347.2,-75.1 63.7,62.1 76.7,179.5 144.4,179.5"
           style="fill:url(#linearGradient2819);fill-opacity:1;fill-rule:nonzero;stroke:none"
           id="path2821" /></g></g><g
       id="g2823"><g
         id="g2825"
         clip-path="url(#clipPath2829)"><path
           d="m 20467.4,3199.6 c 56.1,0 325.6,-103.9 269.5,20.8 -58.8,130.5 -853.4,1205.52 -853.4,1205.52 0,0 -794.6,-1075.02 -853.4,-1205.52 -56.1,-124.7 67.4,-114.3 269.4,-20.8 0,0 -56.1,-218.3 228.4,-90.1 235.4,106.1 203.9,40.7 277,-48.5 82.3,-100.5 142.2,-107.3 254.5,52 112.3,159.3 145.9,-200.9 288.2,-62.4 52.9,51.6 63.6,149 119.8,149"
           style="fill:url(#linearGradient2835);fill-opacity:1;fill-rule:nonzero;stroke:none"
           id="path2837" /></g></g><g
       id="g2839"><g
         id="g2841"
         clip-path="url(#clipPath2845)"><path
           d="m 20386.6,3720.5 c 48.4,0 280.8,-96.8 232.4,19.4 -50.6,121.6 -735.9,1123.32 -735.9,1123.32 0,0 -685.3,-1001.72 -736,-1123.32 -48.4,-116.2 58.2,-106.5 232.4,-19.4 0,0 -48.4,-203.3 196.9,-83.9 203.1,98.9 175.9,38 238.9,-45.2 71,-93.5 122.6,-100 219.5,48.5 96.8,148.5 125.9,-187.3 248.5,-58.1 45.6,48 54.9,138.7 103.3,138.7"
           style="fill:url(#linearGradient2851);fill-opacity:1;fill-rule:nonzero;stroke:none"
           id="path2853" /></g></g></g></svg>
