<?xml version="1.0" encoding="iso-8859-1"?>
<!-- Generator: Adobe Illustrator 19.0.0, SVG Export Plug-In . SVG Version: 6.00 Build 0)  -->
<svg version="1.1" id="Layer_1" xmlns="http://www.w3.org/2000/svg" xmlns:xlink="http://www.w3.org/1999/xlink" x="0px" y="0px"
	 viewBox="0 0 512 512" style="enable-background:new 0 0 512 512;" xml:space="preserve">
<g>
	<path style="fill:#EEC319;" d="M411.975,174.76c-39.247,8.183-78.495,8.183-117.742,0c-18.494,7.389-35.266,18.158-49.576,31.523
		c43.944,28.239,73.137,77.4,73.137,133.526c0,45.833-19.518,87.014-50.564,116.012c24.779,15.96,54.21,25.335,85.875,25.335
		C440.858,481.156,512,410.015,512,322.26C512,255.32,470.554,198.17,411.975,174.76"/>
	<path style="fill:#559E62;" d="M450.209,295.88h-71.706l-25.397-61.793l-25.397,61.793h-16.181
		c4.017,13.956,6.268,28.672,6.268,43.926c0,0.071-0.009,0.132-0.009,0.203l0.009,0.009l-0.009,0.035
		c-0.035,21.327-4.317,41.649-11.979,60.231l47.298-33.783l61.793,44.138l-26.483-70.621L450.209,295.88z"/>
	<path style="fill:#CFD2CF;" d="M362.362,94.852c-3.346,8.951-15.175,8.951-18.511,0l-15.201-40.713
		c-6.594-17.673,3.513-38.444,21.151-40.642c1.086-0.132,2.189-0.203,3.302-0.203c1.121,0,2.225,0.071,3.31,0.203
		c17.638,2.198,27.745,22.969,21.142,40.642L362.362,94.852z"/>
	<path style="fill:#C19817;" d="M282.485,181.017L282.485,181.017c47.078,11.767,94.164,11.767,141.241,0v-35.204H282.485V181.017z"
		/>
	<polygon style="fill:#EEC319;" points="300.14,145.812 406.071,145.812 406.071,119.33 300.14,119.33 	"/>
	<polygon style="fill:#E4E5E6;" points="335.45,119.33 370.76,119.33 370.76,84.019 335.45,84.019 	"/>
	<path style="fill:#C19817;" d="M271.424,238.521c-2.436,0-4.864-1.006-6.603-2.975c-3.231-3.646-2.895-9.225,0.75-12.465
		c8.775-7.768,18.529-14.336,28.963-19.5c4.396-2.154,9.675-0.362,11.829,4.008c2.163,4.37,0.371,9.666-3.999,11.82
		c-9.048,4.476-17.487,10.152-25.088,16.896C275.6,237.789,273.508,238.521,271.424,238.521"/>
	<path style="fill:#BE3A2B;" d="M217.768,192.31c-39.247,8.183-78.495,8.183-117.742,0C41.446,215.721,0,272.87,0,339.81
		c0,87.755,71.142,158.897,158.897,158.897s158.897-71.142,158.897-158.897C317.793,272.87,276.348,215.721,217.768,192.31"/>
	<polygon style="fill:#F0C419;" points="158.898,251.637 184.295,313.431 256.002,313.431 194.209,357.568 220.691,428.189 
		158.898,384.051 97.105,428.189 123.588,357.568 61.795,313.431 133.501,313.431 	"/>
	<path style="fill:#9C281F;" d="M74.588,258.46c-2.357,0-4.696-0.936-6.435-2.79c-3.337-3.558-3.16-9.145,0.388-12.473
		c9.507-8.907,20.198-16.331,31.788-22.06c4.387-2.172,9.675-0.371,11.829,4.008c2.163,4.37,0.371,9.657-3.999,11.82
		c-10.046,4.952-19.306,11.388-27.524,19.103C78.922,257.666,76.751,258.46,74.588,258.46"/>
	<path style="fill:#CFD2CF;" d="M168.155,103.785c-3.346,8.951-15.175,8.951-18.511,0l-15.201-40.713
		c-6.594-17.673,3.513-38.444,21.151-40.642c1.086-0.132,2.189-0.203,3.301-0.203c1.121,0,2.225,0.071,3.31,0.203
		c17.638,2.198,27.745,22.969,21.142,40.642L168.155,103.785z"/>
	<path style="fill:#9C281F;" d="M88.278,198.672L88.278,198.672c47.078,11.767,94.164,11.767,141.241,0v-35.204H88.278V198.672z"/>
	<polygon style="fill:#BE3A2B;" points="105.933,163.467 211.864,163.467 211.864,136.985 105.933,136.985 	"/>
	<polygon style="fill:#E4E5E6;" points="141.243,136.985 176.553,136.985 176.553,101.674 141.243,101.674 	"/>
</g>
<g>
</g>
<g>
</g>
<g>
</g>
<g>
</g>
<g>
</g>
<g>
</g>
<g>
</g>
<g>
</g>
<g>
</g>
<g>
</g>
<g>
</g>
<g>
</g>
<g>
</g>
<g>
</g>
<g>
</g>
</svg>
