<?xml version="1.0" encoding="iso-8859-1"?>
<!-- Generator: Adobe Illustrator 19.0.0, SVG Export Plug-In . SVG Version: 6.00 Build 0)  -->
<svg version="1.1" id="Layer_1" xmlns="http://www.w3.org/2000/svg" xmlns:xlink="http://www.w3.org/1999/xlink" x="0px" y="0px"
	 viewBox="0 0 512.001 512.001" style="enable-background:new 0 0 512.001 512.001;" xml:space="preserve">
<g>
	<path style="fill:#CFD2CF;" d="M265.589,84.471c-3.465,9.271-15.717,9.271-19.173,0l-15.744-42.167
		C223.842,24,234.311,2.487,252.578,0.21c1.125-0.137,2.267-0.21,3.419-0.21c1.161,0,2.304,0.073,3.429,0.21
		c18.267,2.277,28.727,23.79,21.897,42.094L265.589,84.471z"/>
	<path style="fill:#559E62;" d="M316.973,194.661c-40.649,8.475-81.298,8.475-121.947,0
		c-60.672,24.247-103.598,83.438-103.598,152.768c0,90.889,73.682,164.571,164.571,164.571s164.571-73.682,164.571-164.571
		C420.571,278.099,377.645,218.908,316.973,194.661"/>
	<path style="fill:#4C8056;" d="M182.859,201.142L182.859,201.142c48.759,12.187,97.527,12.187,146.286,0v-54.857H182.859V201.142z"
		/>
	<polygon style="fill:#559E62;" points="201.144,146.285 310.859,146.285 310.859,118.856 201.144,118.856 	"/>
	<path style="fill:#4C8056;" d="M168.743,263.142c-2.441,0-4.864-0.969-6.665-2.889c-3.456-3.685-3.273-9.472,0.411-12.919
		c9.838-9.234,20.919-16.923,32.923-22.848c4.535-2.258,10.002-0.384,12.242,4.151c2.231,4.526,0.375,10.002-4.151,12.242
		c-10.386,5.129-19.977,11.785-28.507,19.785C173.232,262.32,170.992,263.142,168.743,263.142"/>
	<polygon style="fill:#E4E5E6;" points="237.716,118.856 274.287,118.856 274.287,82.285 237.716,82.285 	"/>
	<path style="fill:#BE3A2B;" d="M91.43,347.428c0,19.264,3.483,37.678,9.563,54.857h310.016c3.319-9.371,5.861-19.109,7.488-29.157
		c1.353-8.366,2.075-16.942,2.075-25.701c0-19.264-3.419-37.696-9.509-54.857H100.939C94.849,309.732,91.43,328.164,91.43,347.428"
		/>
	<g>
		<path style="fill:#F0C419;" d="M283.43,347.428c0-15.15-12.279-27.429-27.429-27.429c-15.15,0-27.429,12.279-27.429,27.429
			s12.279,27.429,27.429,27.429C271.151,374.856,283.43,362.577,283.43,347.428"/>
		<path style="fill:#F0C419;" d="M182.859,347.428c0-15.15-12.279-27.429-27.429-27.429c-15.15,0-27.429,12.279-27.429,27.429
			s12.279,27.429,27.429,27.429C170.58,374.856,182.859,362.577,182.859,347.428"/>
		<path style="fill:#F0C419;" d="M384.001,347.428c0-15.15-12.279-27.429-27.429-27.429s-27.429,12.279-27.429,27.429
			s12.279,27.429,27.429,27.429S384.001,362.577,384.001,347.428"/>
	</g>
</g>
<g>
</g>
<g>
</g>
<g>
</g>
<g>
</g>
<g>
</g>
<g>
</g>
<g>
</g>
<g>
</g>
<g>
</g>
<g>
</g>
<g>
</g>
<g>
</g>
<g>
</g>
<g>
</g>
<g>
</g>
</svg>
