<?xml version="1.0" encoding="iso-8859-1"?>
<!-- Generator: Adobe Illustrator 19.0.0, SVG Export Plug-In . SVG Version: 6.00 Build 0)  -->
<svg version="1.1" id="Layer_1" xmlns="http://www.w3.org/2000/svg" xmlns:xlink="http://www.w3.org/1999/xlink" x="0px" y="0px"
	 viewBox="0 0 511.882 511.882" style="enable-background:new 0 0 511.882 511.882;" xml:space="preserve">
<g>
	<path style="fill:#CFD2CF;" d="M255.942,17.352c-1.085,0-2.152,0.069-3.202,0.182c-8.478,0.981-15.672,6.387-19.699,14.822
		c-4.721,9.902-4.07,21.695,1.684,30.772l21.218,33.48l21.218-33.48c5.753-9.077,6.404-20.871,1.684-30.772
		c-4.027-8.435-11.221-13.841-19.734-14.822C258.094,17.421,257.027,17.352,255.942,17.352 M255.942,121.487
		c-2.977,0-5.736-1.519-7.333-4.035l-28.551-45.03c-8.921-14.076-9.945-32.291-2.673-47.538
		c6.647-13.937,18.822-22.901,33.384-24.593c3.428-0.391,6.951-0.382,10.309-0.009c14.596,1.701,26.772,10.665,33.419,24.602
		c7.272,15.247,6.248,33.462-2.673,47.538l-28.551,45.03C261.678,119.969,258.918,121.487,255.942,121.487"/>
	<polygon style="fill:#E4E5E6;" points="203.874,164.877 308.01,164.877 308.01,112.809 203.874,112.809 	"/>
	<path style="fill:#559E62;" d="M386.041,311.438c0-26.641-8.591-51.105-23.335-71.116c-15.247-20.706-28.715-42.548-38.062-66.204
		l-3.653-9.242h-130.1l-3.653,9.242c-9.346,23.656-22.814,45.499-38.062,66.204c-14.744,20.011-23.335,44.475-23.335,71.116
		c0,0-3.818,29.965,45.021,75.95c0,0,85.079,72.201,85.079,124.494c0-52.293,85.079-124.494,85.079-124.494
		C389.859,341.403,386.041,311.438,386.041,311.438"/>
	<g>
		<path style="fill:#BE3A2B;" d="M379.741,272.962c-3.983-11.785-9.754-22.762-17.035-32.646
			c-6.274-8.522-12.14-17.304-17.651-26.26c-55.47-3.627-159.857-4.148-203.307,37.801c-4.53,7.888-8.175,16.306-10.821,25.157
			c0,0.026-0.009,0.052-0.017,0.078c-2.638,8.852-4.278,18.12-4.799,27.717C132.679,328.961,314.248,301.755,379.741,272.962"/>
		<path style="fill:#BE3A2B;" d="M341.021,387.389c22.589-21.27,33.844-39.051,39.493-52.085
			c-74.37,10.839-180.719,17.807-221.496,40.084c3.593,3.879,7.437,7.854,11.845,12.002c0,0,27.691,23.517,51.478,53.413
			c24.029,4.964,49.447,2.951,73.737-7.949C318.12,406.845,341.021,387.389,341.021,387.389"/>
	</g>
</g>
<g>
</g>
<g>
</g>
<g>
</g>
<g>
</g>
<g>
</g>
<g>
</g>
<g>
</g>
<g>
</g>
<g>
</g>
<g>
</g>
<g>
</g>
<g>
</g>
<g>
</g>
<g>
</g>
<g>
</g>
</svg>
