<?xml version="1.0" encoding="iso-8859-1"?>
<!-- Generator: Adobe Illustrator 19.0.0, SVG Export Plug-In . SVG Version: 6.00 Build 0)  -->
<svg version="1.1" id="Layer_1" xmlns="http://www.w3.org/2000/svg" xmlns:xlink="http://www.w3.org/1999/xlink" x="0px" y="0px"
	 viewBox="0 0 512.005 512.005" style="enable-background:new 0 0 512.005 512.005;" xml:space="preserve">
<g>
	<path style="fill:#CFD2CF;" d="M362.362,90.388c-3.346,8.951-15.175,8.951-18.511,0l-15.201-40.713
		c-6.594-17.673,3.513-38.444,21.151-40.642c1.086-0.132,2.189-0.203,3.302-0.203c1.121,0,2.225,0.071,3.31,0.203
		c17.638,2.198,27.736,22.969,21.142,40.642L362.362,90.388z"/>
	<path style="fill:#BE3A2B;" d="M411.975,179.124c-39.247,8.183-78.495,8.183-117.742,0c-18.52,7.398-35.31,18.194-49.646,31.585
		c43.988,28.239,73.207,77.418,73.207,133.57c0,45.798-19.491,86.952-50.494,115.95c24.77,15.934,54.166,25.291,85.804,25.291
		C440.858,485.52,512,414.379,512,326.624C512,259.684,470.554,202.534,411.975,179.124"/>
	<path style="fill:#9C281F;" d="M282.485,185.381L282.485,185.381c47.078,11.767,94.164,11.767,141.241,0v-35.31H282.485V185.381z"
		/>
	<polygon style="fill:#BE3A2B;" points="300.14,150.07 406.071,150.07 406.071,123.588 300.14,123.588 	"/>
	<path style="fill:#9C281F;" d="M272.338,242.096c-2.436,0-4.873-1.006-6.612-2.984c-3.231-3.655-2.887-9.234,0.768-12.465
		c8.51-7.512,17.434-13.462,28.107-18.732c4.37-2.154,9.666-0.353,11.82,4.008c2.163,4.37,0.362,9.666-4.008,11.82
		c-9.234,4.564-16.931,9.693-24.232,16.146C276.505,241.363,274.413,242.096,272.338,242.096"/>
	<polygon style="fill:#E4E5E6;" points="335.45,123.588 370.76,123.588 370.76,88.277 335.45,88.277 	"/>
	<path style="fill:#559E62;" d="M502.825,273.656H301.211c10.593,21.266,16.587,45.233,16.587,70.621
		c0,12.156-1.492,23.94-4.078,35.31h189.043c3.204-9.048,5.667-18.45,7.239-28.151c1.306-8.077,2.004-16.358,2.004-24.814
		C512.005,308.022,508.704,290.226,502.825,273.656"/>
	<path style="fill:#6CA1E9;" d="M217.768,196.779c-39.247,8.183-78.495,8.183-117.742,0C41.446,220.19,0,277.339,0,344.279
		c0,87.755,71.142,158.897,158.897,158.897s158.897-71.142,158.897-158.897C317.793,277.339,276.348,220.19,217.768,196.779"/>
	<path style="fill:#4F85BF;" d="M74.649,262.898c-2.357,0-4.696-0.936-6.435-2.79c-3.337-3.557-3.16-9.145,0.397-12.473
		c9.516-8.925,20.206-16.349,31.788-22.06c4.352-2.172,9.666-0.362,11.82,4.008c2.163,4.37,0.362,9.666-4.008,11.82
		c-10.019,4.943-19.279,11.379-27.524,19.103C78.983,262.104,76.811,262.898,74.649,262.898"/>
	<path style="fill:#EEC319;" d="M0.002,344.277c0,18.6,3.363,36.378,9.234,52.966h299.326c3.204-9.048,5.659-18.45,7.23-28.151
		c1.307-8.077,2.004-16.358,2.004-24.814c0-18.6-3.302-36.396-9.181-52.966H9.182C3.303,307.881,0.002,325.677,0.002,344.277"/>
	<g>
		<path style="fill:#BE3A2B;" d="M185.381,344.277c0-14.627-11.855-26.483-26.483-26.483s-26.483,11.855-26.483,26.483
			s11.855,26.483,26.483,26.483S185.381,358.905,185.381,344.277"/>
		<path style="fill:#BE3A2B;" d="M88.278,344.277c0-14.627-11.855-26.483-26.483-26.483s-26.483,11.855-26.483,26.483
			s11.855,26.483,26.483,26.483S88.278,358.905,88.278,344.277"/>
		<path style="fill:#BE3A2B;" d="M282.485,344.277c0-14.627-11.855-26.483-26.483-26.483c-14.627,0-26.483,11.855-26.483,26.483
			s11.855,26.483,26.483,26.483C270.629,370.76,282.485,358.905,282.485,344.277"/>
	</g>
	<g>
		<path style="fill:#EEC319;" d="M397.243,326.622c0-14.627-11.855-26.483-26.483-26.483s-26.483,11.855-26.483,26.483
			c0,14.627,11.855,26.483,26.483,26.483S397.243,341.249,397.243,326.622"/>
		<path style="fill:#EEC319;" d="M485.519,326.622c0-14.627-11.855-26.483-26.483-26.483s-26.483,11.855-26.483,26.483
			c0,14.627,11.855,26.483,26.483,26.483S485.519,341.249,485.519,326.622"/>
	</g>
	<path style="fill:#CFD2CF;" d="M168.155,108.043c-3.346,8.951-15.175,8.951-18.511,0L134.442,67.33
		c-6.594-17.673,3.513-38.444,21.151-40.642c1.086-0.132,2.189-0.203,3.301-0.203c1.121,0,2.225,0.071,3.31,0.203
		c17.638,2.198,27.736,22.969,21.142,40.642L168.155,108.043z"/>
	<path style="fill:#4F85BF;" d="M88.278,203.036L88.278,203.036c47.078,11.767,94.164,11.767,141.241,0v-35.31H88.278V203.036z"/>
	<polygon style="fill:#6CA1E9;" points="105.933,167.725 211.864,167.725 211.864,141.243 105.933,141.243 	"/>
	<polygon style="fill:#E4E5E6;" points="141.243,141.243 176.553,141.243 176.553,105.932 141.243,105.932 	"/>
</g>
<g>
</g>
<g>
</g>
<g>
</g>
<g>
</g>
<g>
</g>
<g>
</g>
<g>
</g>
<g>
</g>
<g>
</g>
<g>
</g>
<g>
</g>
<g>
</g>
<g>
</g>
<g>
</g>
<g>
</g>
</svg>
