<?xml version="1.0" encoding="iso-8859-1"?>
<!-- Generator: Adobe Illustrator 19.0.0, SVG Export Plug-In . SVG Version: 6.00 Build 0)  -->
<svg version="1.1" id="Layer_1" xmlns="http://www.w3.org/2000/svg" xmlns:xlink="http://www.w3.org/1999/xlink" x="0px" y="0px"
	 viewBox="0 0 511.882 511.882" style="enable-background:new 0 0 511.882 511.882;" xml:space="preserve">
<g>
	<path style="fill:#CFD2CF;" d="M255.942,17.352c-1.085,0-2.152,0.069-3.202,0.182c-8.478,0.981-15.672,6.387-19.699,14.822
		c-4.721,9.902-4.07,21.695,1.684,30.772l21.218,33.48l21.218-33.48c5.753-9.077,6.404-20.871,1.684-30.772
		c-4.027-8.435-11.221-13.841-19.734-14.822C258.094,17.421,257.027,17.352,255.942,17.352 M255.942,121.487
		c-2.977,0-5.736-1.519-7.333-4.035l-28.551-45.03c-8.921-14.076-9.945-32.291-2.673-47.538
		c6.647-13.937,18.822-22.901,33.384-24.593c3.428-0.391,6.951-0.382,10.309-0.009c14.596,1.701,26.772,10.665,33.419,24.602
		c7.272,15.247,6.248,33.462-2.673,47.538l-28.551,45.03C261.678,119.969,258.918,121.487,255.942,121.487"/>
	<polygon style="fill:#E4E5E6;" points="203.874,164.877 308.01,164.877 308.01,112.809 203.874,112.809 	"/>
	<path style="fill:#BE3A2B;" d="M386.041,311.438c0-26.641-8.591-51.105-23.335-71.116c-15.247-20.706-28.715-42.548-38.062-66.204
		l-3.653-9.242h-130.1l-3.653,9.242c-9.346,23.656-22.814,45.499-38.062,66.204c-14.744,20.011-23.335,44.475-23.335,71.116
		c0,0-3.818,29.965,45.021,75.95c0,0,85.079,72.201,85.079,124.494c0-52.293,85.079-124.494,85.079-124.494
		C389.859,341.403,386.041,311.438,386.041,311.438"/>
	<g>
		<path style="fill:#F0C419;" d="M350.889,258.837c5.059-5.059,11.281-8.218,17.799-9.502c-1.874-3.089-3.836-6.109-5.979-9.016
			c-6.743-9.155-13.052-18.58-18.892-28.238c-13.303,7.793-30.607,6.101-42.019-5.311c-13.564-13.564-35.519-13.564-49.091,0
			c-13.564,13.564-35.519,13.564-49.091,0c-7.402-7.411-17.304-10.622-26.988-9.945c-7.923,15.126-17.217,29.601-27.448,43.494
			c-6.378,8.661-11.524,18.189-15.403,28.334c7.576-0.833,14.943-4.001,20.758-9.815c13.564-13.564,35.519-13.564,49.083,0
			c13.572,13.564,35.528,13.564,49.091,0c13.572-13.564,35.528-13.564,49.091,0C315.362,272.4,337.326,272.4,350.889,258.837"/>
		<path style="fill:#F0C419;" d="M350.889,310.905c-13.564,13.564-35.528,13.564-49.091,0s-35.519-13.564-49.091,0
			c-13.564,13.564-35.519,13.564-49.091,0c-13.564-13.564-35.519-13.564-49.083,0c-7.637,7.637-17.92,10.813-27.874,9.858
			c1.822,9.207,7.506,24.88,24.159,45.238c1.267-0.955,2.56-1.874,3.714-3.029c13.564-13.564,35.519-13.564,49.083,0
			c13.572,13.564,35.528,13.564,49.091,0c13.572-13.564,35.528-13.564,49.091,0s35.528,13.564,49.091,0
			c5.528-5.528,12.47-8.687,19.656-9.702c17.391-26.095,15.499-41.828,15.499-41.828c0-3.037-0.148-6.031-0.365-9.008
			C373.773,298.755,360.322,301.472,350.889,310.905"/>
		<path style="fill:#F0C419;" d="M307.715,419.739c-2.091-1.336-4.087-2.872-5.918-4.703c-13.564-13.564-35.519-13.564-49.091,0
			c-13.564,13.572-35.519,13.572-49.083,0c-3.306-3.298-7.125-5.771-11.186-7.463c25.201,25.183,63.505,69.215,63.505,104.309
			C255.943,481.926,283.86,445.443,307.715,419.739"/>
	</g>
</g>
<g>
</g>
<g>
</g>
<g>
</g>
<g>
</g>
<g>
</g>
<g>
</g>
<g>
</g>
<g>
</g>
<g>
</g>
<g>
</g>
<g>
</g>
<g>
</g>
<g>
</g>
<g>
</g>
<g>
</g>
</svg>
