<?xml version="1.0" encoding="iso-8859-1"?>
<!-- Generator: Adobe Illustrator 19.0.0, SVG Export Plug-In . SVG Version: 6.00 Build 0)  -->
<svg version="1.1" id="Layer_1" xmlns="http://www.w3.org/2000/svg" xmlns:xlink="http://www.w3.org/1999/xlink" x="0px" y="0px"
	 viewBox="0 0 511.782 511.782" style="enable-background:new 0 0 511.782 511.782;" xml:space="preserve">
<g>
	<path style="fill:#CFD2CF;" d="M265.48,84.471c-3.465,9.271-15.717,9.271-19.173,0l-15.744-42.167
		C223.734,24,234.203,2.487,252.47,0.21c1.125-0.137,2.267-0.21,3.419-0.21c1.161,0,2.304,0.073,3.429,0.21
		c18.267,2.277,28.727,23.79,21.897,42.094L265.48,84.471z"/>
	<path style="fill:#BE3A2B;" d="M316.865,194.443c-40.649,8.475-81.298,8.475-121.947,0C134.245,218.69,91.32,277.881,91.32,347.211
		c0,90.889,73.682,164.571,164.571,164.571S420.463,438.1,420.463,347.211C420.463,277.881,377.537,218.69,316.865,194.443"/>
	<g>
		<path style="fill:#9C281F;" d="M168.576,262.956c-2.441,0-4.864-0.969-6.665-2.88c-3.456-3.685-3.273-9.472,0.402-12.928
			c9.838-9.225,20.919-16.914,32.933-22.848c4.526-2.258,10.002-0.384,12.242,4.151c2.231,4.526,0.375,10.002-4.151,12.242
			c-10.395,5.129-19.986,11.794-28.498,19.785C173.065,262.133,170.825,262.956,168.576,262.956"/>
		<path style="fill:#9C281F;" d="M182.75,201.032L182.75,201.032c48.759,12.187,97.527,12.187,146.286,0v-54.857H182.75V201.032z"/>
	</g>
	<polygon style="fill:#BE3A2B;" points="201.036,146.175 310.75,146.175 310.75,118.747 201.036,118.747 	"/>
	<polygon style="fill:#E4E5E6;" points="237.607,118.747 274.179,118.747 274.179,82.175 237.607,82.175 	"/>
	<polygon style="fill:#F0C419;" points="255.893,255.889 282.197,319.889 356.464,319.889 292.464,365.604 319.893,438.747 
		255.893,393.032 191.893,438.747 219.322,365.604 155.322,319.889 229.589,319.889 	"/>
</g>
<g>
</g>
<g>
</g>
<g>
</g>
<g>
</g>
<g>
</g>
<g>
</g>
<g>
</g>
<g>
</g>
<g>
</g>
<g>
</g>
<g>
</g>
<g>
</g>
<g>
</g>
<g>
</g>
<g>
</g>
</svg>
