<?xml version="1.0" encoding="iso-8859-1"?>
<!-- Generator: Adobe Illustrator 19.0.0, SVG Export Plug-In . SVG Version: 6.00 Build 0)  -->
<svg version="1.1" id="Layer_1" xmlns="http://www.w3.org/2000/svg" xmlns:xlink="http://www.w3.org/1999/xlink" x="0px" y="0px"
	 viewBox="0 0 511.882 511.882" style="enable-background:new 0 0 511.882 511.882;" xml:space="preserve">
<g>
	<path style="fill:#6CA1E9;" d="M386.041,311.438c0-26.641-8.591-51.105-23.335-71.116c-15.247-20.706-28.715-42.548-38.062-66.204
		l-3.653-9.242h-130.1l-3.653,9.242c-9.346,23.656-22.814,45.499-38.062,66.204c-14.744,20.011-23.335,44.475-23.335,71.116
		c0,0-3.818,29.965,45.021,75.95c0,0,85.079,72.201,85.079,124.494c0-52.293,85.079-124.494,85.079-124.494
		C389.859,341.403,386.041,311.438,386.041,311.438"/>
	<path style="fill:#CFD2CF;" d="M255.942,17.352c-1.085,0-2.152,0.069-3.202,0.182c-8.478,0.981-15.672,6.387-19.699,14.822
		c-4.721,9.902-4.07,21.695,1.684,30.772l21.218,33.48l21.218-33.48c5.753-9.077,6.404-20.871,1.684-30.772
		c-4.027-8.435-11.221-13.841-19.734-14.822C258.094,17.421,257.027,17.352,255.942,17.352 M255.942,121.487
		c-2.977,0-5.736-1.519-7.333-4.035l-28.551-45.03c-8.921-14.076-9.945-32.291-2.673-47.538
		c6.647-13.937,18.822-22.901,33.384-24.593c3.428-0.391,6.951-0.382,10.309-0.009c14.596,1.701,26.772,10.665,33.419,24.602
		c7.272,15.247,6.248,33.462-2.673,47.538l-28.551,45.03C261.678,119.969,258.918,121.487,255.942,121.487"/>
	<polygon style="fill:#E4E5E6;" points="203.874,164.877 308.01,164.877 308.01,112.809 203.874,112.809 	"/>
	<g>
		<path style="fill:#4F85BF;" d="M281.976,303.724c0,14.379-11.655,26.034-26.034,26.034s-26.034-11.654-26.034-26.034
			c0-14.379,11.655-26.034,26.034-26.034S281.976,289.345,281.976,303.724"/>
		<path style="fill:#4F85BF;" d="M255.942,286.369c-4.799,0-8.678-3.879-8.678-8.678v-69.424c0-4.799,3.879-8.678,8.678-8.678
			s8.678,3.879,8.678,8.678v69.424C264.62,282.49,260.741,286.369,255.942,286.369"/>
		<path style="fill:#4F85BF;" d="M255.942,407.86c-4.799,0-8.678-3.879-8.678-8.678v-69.424c0-4.799,3.879-8.678,8.678-8.678
			s8.678,3.879,8.678,8.678v69.424C264.62,403.981,260.741,407.86,255.942,407.86"/>
		<path style="fill:#4F85BF;" d="M351.399,312.402h-69.424c-4.799,0-8.678-3.879-8.678-8.678c0-4.799,3.879-8.678,8.678-8.678
			h69.424c4.799,0,8.678,3.879,8.678,8.678C360.077,308.523,356.198,312.402,351.399,312.402"/>
		<path style="fill:#4F85BF;" d="M229.908,312.402h-69.424c-4.799,0-8.678-3.879-8.678-8.678c0-4.799,3.879-8.678,8.678-8.678
			h69.424c4.799,0,8.678,3.879,8.678,8.678C238.586,308.523,234.707,312.402,229.908,312.402"/>
		<path style="fill:#4F85BF;" d="M255.951,260.335c-2.803,0-5.563-1.354-7.229-3.862c-2.664-3.992-1.588-9.372,2.404-12.036
			l26.034-17.356c3.992-2.664,9.381-1.588,12.036,2.404c2.664,3.992,1.588,9.372-2.404,12.036l-26.034,17.356
			C259.274,259.857,257.599,260.335,255.951,260.335"/>
		<path style="fill:#4F85BF;" d="M255.933,260.335c-1.649,0-3.324-0.477-4.808-1.458l-26.034-17.356
			c-3.992-2.664-5.068-8.044-2.404-12.036c2.647-3.992,8.027-5.068,12.036-2.404l26.034,17.356
			c3.992,2.664,5.068,8.044,2.404,12.036C261.496,258.981,258.736,260.335,255.933,260.335"/>
		<path style="fill:#4F85BF;" d="M229.917,381.826c-2.803,0-5.563-1.354-7.229-3.862c-2.664-3.992-1.588-9.372,2.404-12.036
			l26.034-17.356c3.992-2.655,9.372-1.588,12.036,2.404c2.664,3.992,1.588,9.372-2.404,12.036l-26.034,17.356
			C233.24,381.349,231.565,381.826,229.917,381.826"/>
		<path style="fill:#4F85BF;" d="M281.967,381.826c-1.649,0-3.324-0.477-4.808-1.458l-26.034-17.356
			c-3.992-2.664-5.068-8.044-2.404-12.036c2.647-3.992,8.036-5.059,12.036-2.404l26.034,17.356
			c3.992,2.664,5.068,8.044,2.404,12.036C287.53,380.472,284.77,381.826,281.967,381.826"/>
		<path style="fill:#4F85BF;" d="M203.883,312.402c-2.803,0-5.563-1.354-7.229-3.862l-17.356-26.034
			c-2.664-3.992-1.588-9.372,2.404-12.036c4.001-2.655,9.372-1.588,12.036,2.404l17.356,26.034
			c2.664,3.992,1.588,9.372-2.404,12.036C207.206,311.925,205.532,312.402,203.883,312.402"/>
		<path style="fill:#4F85BF;" d="M186.509,338.436c-1.649,0-3.324-0.477-4.808-1.458c-3.992-2.664-5.068-8.044-2.404-12.036
			l17.356-26.034c2.655-3.992,8.027-5.068,12.036-2.404c3.992,2.664,5.068,8.044,2.404,12.036l-17.356,26.034
			C192.072,337.083,189.312,338.436,186.509,338.436"/>
		<path style="fill:#4F85BF;" d="M325.374,338.436c-2.803,0-5.563-1.354-7.229-3.862l-17.356-26.034
			c-2.664-3.992-1.588-9.372,2.404-12.036c3.992-2.664,9.381-1.588,12.036,2.404l17.356,26.034
			c2.664,3.992,1.588,9.372-2.404,12.036C328.698,337.959,327.023,338.436,325.374,338.436"/>
		<path style="fill:#4F85BF;" d="M308.001,312.402c-1.649,0-3.324-0.477-4.808-1.458c-3.992-2.664-5.068-8.044-2.404-12.036
			l17.356-26.034c2.647-3.992,8.036-5.059,12.036-2.404c3.992,2.664,5.068,8.044,2.404,12.036l-17.356,26.034
			C313.564,311.049,310.804,312.402,308.001,312.402"/>
	</g>
</g>
<g>
</g>
<g>
</g>
<g>
</g>
<g>
</g>
<g>
</g>
<g>
</g>
<g>
</g>
<g>
</g>
<g>
</g>
<g>
</g>
<g>
</g>
<g>
</g>
<g>
</g>
<g>
</g>
<g>
</g>
</svg>
