<?xml version="1.0" encoding="iso-8859-1"?>
<!-- Generator: Adobe Illustrator 19.0.0, SVG Export Plug-In . SVG Version: 6.00 Build 0)  -->
<svg version="1.1" id="Layer_1" xmlns="http://www.w3.org/2000/svg" xmlns:xlink="http://www.w3.org/1999/xlink" x="0px" y="0px"
	 viewBox="0 0 504.152 504.152" style="enable-background:new 0 0 504.152 504.152;" xml:space="preserve">
<g>
	<g>
		<path style="fill:#4F3F82;" d="M445.624,35.883c-7.324-0.937-13.381-6.994-14.319-14.319c-0.703-5.519-3.176-10.847-7.411-15.082
			c-0.104-0.104-0.208-0.208-0.312-0.304C410.2-6.787,387.516,2.507,385.459,21.026l-4.521,40.682L442.3,123.07l40.917-4.547
			c17.139-1.909,27.093-21.886,16.705-35.658c-0.72-0.955-1.519-1.874-2.395-2.751c-4.235-4.235-9.572-6.708-15.082-7.411
			c-7.324-0.937-13.381-7.003-14.319-14.319c-0.712-5.519-3.185-10.856-7.42-15.091C456.471,39.059,451.143,36.586,445.624,35.883"
			/>
		<path style="fill:#4F3F82;" d="M58.528,467.974c7.324,0.937,13.381,6.994,14.319,14.319c0.703,5.519,3.176,10.847,7.411,15.082
			c0.876,0.876,1.796,1.675,2.76,2.404c13.772,10.388,33.749,0.434,35.649-16.714l4.547-40.917l-61.362-61.362l-40.917,4.547
			C3.796,387.243-6.157,407.22,4.23,420.992c0.72,0.955,1.519,1.874,2.395,2.751c4.235,4.235,9.572,6.708,15.082,7.411
			c7.324,0.937,13.381,7.003,14.319,14.319c0.712,5.519,3.185,10.856,7.42,15.091S53.009,467.272,58.528,467.974"/>
	</g>
	<g>
		<path style="fill:#6F58A8;" d="M411.723,101.109c-2.222,0-4.443-0.85-6.135-2.543c-3.393-3.393-3.393-8.878,0-12.271l24.541-24.55
			c3.384-3.393,8.886-3.393,12.271,0c3.393,3.384,3.393,8.878,0,12.271l-24.541,24.55
			C416.166,100.259,413.945,101.109,411.723,101.109"/>
		<path style="fill:#6F58A8;" d="M448.537,101.109h-36.812c-4.79,0-8.678-3.879-8.678-8.678c0-4.799,3.888-8.678,8.678-8.678h36.812
			c4.79,0,8.678,3.879,8.678,8.678C457.215,97.23,453.327,101.109,448.537,101.109"/>
		<path style="fill:#6F58A8;" d="M411.723,101.109c-4.79,0-8.678-3.879-8.678-8.678V55.61c0-4.799,3.888-8.678,8.678-8.678
			c4.79,0,8.678,3.879,8.678,8.678v36.821C420.401,97.23,416.513,101.109,411.723,101.109"/>
		<path style="fill:#6F58A8;" d="M68.092,444.736c-2.222,0-4.443-0.85-6.135-2.543c-3.393-3.393-3.393-8.878,0-12.271l24.541-24.541
			c3.393-3.393,8.886-3.393,12.271,0c3.393,3.384,3.393,8.878,0,12.271l-24.541,24.541
			C72.535,443.885,70.314,444.736,68.092,444.736"/>
		<path style="fill:#6F58A8;" d="M92.634,420.194H55.822c-4.79,0-8.678-3.879-8.678-8.678c0-4.799,3.888-8.678,8.678-8.678h36.812
			c4.79,0,8.678,3.879,8.678,8.678C101.312,416.315,97.425,420.194,92.634,420.194"/>
		<path style="fill:#6F58A8;" d="M92.634,457.007c-4.79,0-8.678-3.879-8.678-8.678v-36.812c0-4.799,3.888-8.678,8.678-8.678
			s8.678,3.879,8.678,8.678v36.812C101.312,453.128,97.425,457.007,92.634,457.007"/>
		<path style="fill:#6F58A8;" d="M123.215,442.152L61.853,380.79c-10.171-10.171-10.171-26.65,0-36.821L344.121,61.702
			c10.162-10.162,26.65-10.162,36.812,0l61.371,61.362c10.162,10.171,10.162,26.659,0,36.821L160.035,442.152
			C149.865,452.323,133.385,452.323,123.215,442.152"/>
	</g>
	<g>
		<path style="fill:#D85C81;" d="M272.155,330.03H75.798l-13.945,13.945c-10.171,10.162-10.171,26.65,0,36.812l1.31,1.31h156.924
			L272.155,330.03z"/>
		<polygon style="fill:#D85C81;" points="127.862,277.963 324.218,277.963 376.286,225.895 179.929,225.895 		"/>
		<path style="fill:#D85C81;" d="M231.998,173.826h196.356l13.945-13.945c10.171-10.162,10.171-26.65,0-36.812l-1.31-1.31H284.066
			L231.998,173.826z"/>
	</g>
</g>
<g>
</g>
<g>
</g>
<g>
</g>
<g>
</g>
<g>
</g>
<g>
</g>
<g>
</g>
<g>
</g>
<g>
</g>
<g>
</g>
<g>
</g>
<g>
</g>
<g>
</g>
<g>
</g>
<g>
</g>
</svg>
