<?xml version="1.0" encoding="iso-8859-1"?>
<!-- Generator: Adobe Illustrator 19.0.0, SVG Export Plug-In . SVG Version: 6.00 Build 0)  -->
<svg version="1.1" id="Layer_1" xmlns="http://www.w3.org/2000/svg" xmlns:xlink="http://www.w3.org/1999/xlink" x="0px" y="0px"
	 viewBox="0 0 504.152 504.152" style="enable-background:new 0 0 504.152 504.152;" xml:space="preserve">
<g>
	<path style="fill:#F8B7C2;" d="M445.624,35.883c-7.324-0.937-13.381-6.994-14.319-14.319c-0.703-5.519-3.176-10.847-7.411-15.082
		c-0.104-0.104-0.208-0.208-0.312-0.304C410.2-6.787,387.516,2.507,385.459,21.026l-4.521,40.682L442.3,123.07l40.917-4.547
		c17.139-1.909,27.093-21.886,16.705-35.658c-0.72-0.955-1.519-1.874-2.395-2.751c-4.235-4.235-9.572-6.708-15.082-7.411
		c-7.324-0.937-13.381-7.003-14.319-14.319c-0.712-5.519-3.185-10.856-7.42-15.091C456.471,39.059,451.143,36.586,445.624,35.883"/>
	<g>
		<path style="fill:#F96C7E;" d="M411.62,101.067c-2.222,0-4.443-0.85-6.135-2.543c-3.393-3.393-3.393-8.878,0-12.271l24.541-24.55
			c3.384-3.393,8.886-3.393,12.271,0c3.393,3.384,3.393,8.878,0,12.271l-24.541,24.55
			C416.063,100.217,413.841,101.067,411.62,101.067"/>
		<path style="fill:#F96C7E;" d="M448.434,101.067h-36.812c-4.79,0-8.678-3.879-8.678-8.678c0-4.799,3.888-8.678,8.678-8.678h36.812
			c4.79,0,8.678,3.879,8.678,8.678C457.111,97.188,453.224,101.067,448.434,101.067"/>
		<path style="fill:#F96C7E;" d="M411.62,101.067c-4.79,0-8.678-3.879-8.678-8.678V55.569c0-4.799,3.888-8.678,8.678-8.678
			c4.79,0,8.678,3.879,8.678,8.678v36.821C420.298,97.188,416.41,101.067,411.62,101.067"/>
	</g>
	<path style="fill:#F8B7C2;" d="M58.528,467.974c7.324,0.937,13.381,6.994,14.319,14.319c0.703,5.519,3.176,10.847,7.411,15.082
		c0.876,0.876,1.796,1.675,2.76,2.404c13.772,10.388,33.749,0.434,35.649-16.714l4.547-40.917l-61.362-61.362l-40.917,4.547
		C3.796,387.243-6.157,407.22,4.23,420.992c0.72,0.955,1.519,1.874,2.395,2.751c4.235,4.235,9.572,6.708,15.082,7.411
		c7.324,0.937,13.381,7.003,14.319,14.319c0.712,5.519,3.185,10.856,7.42,15.091S53.009,467.271,58.528,467.974"/>
	<g>
		<path style="fill:#F96C7E;" d="M67.989,444.694c-2.222,0-4.443-0.85-6.135-2.543c-3.393-3.393-3.393-8.878,0-12.271l24.541-24.541
			c3.393-3.393,8.886-3.393,12.271,0c3.393,3.384,3.393,8.878,0,12.271l-24.541,24.541C72.432,443.844,70.21,444.694,67.989,444.694
			"/>
		<path style="fill:#F96C7E;" d="M92.531,420.152H55.719c-4.79,0-8.678-3.879-8.678-8.678c0-4.799,3.888-8.678,8.678-8.678h36.812
			c4.79,0,8.678,3.879,8.678,8.678C101.209,416.273,97.321,420.152,92.531,420.152"/>
		<path style="fill:#F96C7E;" d="M92.531,456.966c-4.79,0-8.678-3.879-8.678-8.678v-36.812c0-4.799,3.888-8.678,8.678-8.678
			s8.678,3.879,8.678,8.678v36.812C101.209,453.087,97.321,456.966,92.531,456.966"/>
		<path style="fill:#F96C7E;" d="M123.215,442.153l-61.362-61.362c-10.171-10.171-10.171-26.65,0-36.821L344.121,61.702
			c10.162-10.162,26.65-10.162,36.812,0l61.371,61.362c10.162,10.171,10.162,26.659,0,36.821L160.035,442.153
			C149.865,452.324,133.385,452.324,123.215,442.153"/>
	</g>
	<path style="fill:#F8B7C2;" d="M288.881,313.304L393.19,208.994c-19.812-19.039-50.35-26.997-79.291-17.963
		c-29.236,10.292-59.947,2.343-80.158-18.944L129.432,276.396c20.211,21.287,50.914,29.245,80.158,18.953
		C238.532,286.306,269.061,294.264,288.881,313.304"/>
</g>
<g>
</g>
<g>
</g>
<g>
</g>
<g>
</g>
<g>
</g>
<g>
</g>
<g>
</g>
<g>
</g>
<g>
</g>
<g>
</g>
<g>
</g>
<g>
</g>
<g>
</g>
<g>
</g>
<g>
</g>
</svg>
