<?xml version="1.0" encoding="iso-8859-1"?>
<!-- Generator: Adobe Illustrator 19.0.0, SVG Export Plug-In . SVG Version: 6.00 Build 0)  -->
<svg version="1.1" id="Layer_1" xmlns="http://www.w3.org/2000/svg" xmlns:xlink="http://www.w3.org/1999/xlink" x="0px" y="0px"
	 viewBox="0 0 511.996 511.996" style="enable-background:new 0 0 511.996 511.996;" xml:space="preserve">
<g>
	<path style="fill:#F96C7E;" d="M313.002,89.681c7.433-16.225,26.218-25.141,43.493-19.076
		c19.818,6.956,29.193,28.928,20.877,47.086l-3.566,7.768c-7.857,17.161,0.035,37.658,17.637,45.771
		c17.602,8.113,38.241,0.777,46.098-16.384l3.558-7.768c24.911-54.369-3.063-120.143-62.296-141.135
		c-51.615-18.3-107.926,7.177-130.154,55.702L64.832,462.92c-7.857,17.161,0.035,37.659,17.638,45.771
		c17.602,8.113,38.241,0.777,46.098-16.384L313.002,89.681z"/>
	<g>
		<path style="fill:#F8B7C2;" d="M139.757,320.549c2.03-4.431,0.079-9.657-4.352-11.697l-17.178,37.5
			c2.639,25.229,20.25,49.055,48.702,62.173h0.018l7.353-16.049C147.287,380.021,126.004,350.59,139.757,320.549"/>
		<path style="fill:#F8B7C2;" d="M125.543,497.442c1.121-1.615,2.18-3.284,3.028-5.138l4.873-10.637
			c-30.199-13.939-45.091-48.887-32.521-76.341c2.03-4.431,0.088-9.666-4.343-11.697l0,0l-17.655,38.532
			C81.016,458.936,98.133,484.571,125.543,497.442"/>
		<path style="fill:#F8B7C2;" d="M182.322,227.627c2.03-4.431,0.079-9.657-4.352-11.697l-17.479,38.17
			c2.225,26.686,19.615,52.33,47.342,65.112h0.026l7.353-16.049C184.485,288.987,169.734,255.116,182.322,227.627"/>
		<path style="fill:#F8B7C2;" d="M222.757,139.351c2.03-4.431,0.079-9.666-4.343-11.697l-17.814,38.886
			c1.889,27.727,19.068,54.51,46.424,67.134h0.009l7.362-16.049C224.716,203.925,209.93,167.361,222.757,139.351"/>
		<path style="fill:#F8B7C2;" d="M269.063,44.843c1.677-3.663,0.53-7.759-2.375-10.258c-7.239,7.918-13.409,16.949-18.044,27.057
			l-2.242,4.908c-0.53,29.087,16.252,57.441,44.826,70.612h0.018l7.353-16.049C269.248,107.563,255.998,73.365,269.063,44.843"/>
		<path style="fill:#F8B7C2;" d="M349.366,68.991c-0.018-3.319-1.863-6.497-5.076-7.98c-15.316-7.053-19.262-32.689-8.598-55.958
			c0.689-1.518,0.777-3.09,0.6-4.634c-6.515,0.521-12.915,1.642-19.165,3.346c-10.311,27.622-5.076,55.384,12.491,68.82
			C335.648,69.539,342.463,68.153,349.366,68.991"/>
		<path style="fill:#F8B7C2;" d="M427.272,40.562c-12.42-3.116-25.114-2.569-36.732,1.739
			c-14.027,5.191-25.256,15.625-31.753,29.387c5.641,2.436,10.319,6.065,13.859,10.531c0.742-0.742,1.412-1.562,1.871-2.569
			c4.537-9.922,12.2-17.108,22.148-20.789c11.079-4.114,23.684-3.354,35.522,2.092c2.569,1.183,5.332,0.909,7.662-0.282
			C436.444,53.556,432.233,46.821,427.272,40.562"/>
		<path style="fill:#F8B7C2;" d="M383.886,106.05c-1.404,0.521-2.639,1.192-3.919,1.836c-0.406,3.31-1.139,6.621-2.595,9.807
			l-3.566,7.768c-1.236,2.701-1.951,5.491-2.428,8.289c0.803,0.238,1.615,0.53,2.419,0.53c3.354,0,6.559-1.916,8.042-5.155
			c1.271-2.781,4.025-4.979,8.174-6.515c12.915-4.785,34.516-1.757,55.049,7.715c0.565,0.256,1.148,0.274,1.73,0.406
			c1.527-5.809,2.551-11.67,3.01-17.549C425.641,102.66,400.606,99.862,383.886,106.05"/>
	</g>
</g>
<g>
</g>
<g>
</g>
<g>
</g>
<g>
</g>
<g>
</g>
<g>
</g>
<g>
</g>
<g>
</g>
<g>
</g>
<g>
</g>
<g>
</g>
<g>
</g>
<g>
</g>
<g>
</g>
<g>
</g>
</svg>
