<?xml version="1.0" encoding="iso-8859-1"?>
<!-- Generator: Adobe Illustrator 19.0.0, SVG Export Plug-In . SVG Version: 6.00 Build 0)  -->
<svg version="1.1" id="Layer_1" xmlns="http://www.w3.org/2000/svg" xmlns:xlink="http://www.w3.org/1999/xlink" x="0px" y="0px"
	 viewBox="0 0 512 512" style="enable-background:new 0 0 512 512;" xml:space="preserve">
<path style="fill:#507C5C;" d="M131.922,512c-30.372,0-59.121-11.685-80.95-32.903c-21.907-21.294-34.396-49.844-35.167-80.393
	c-1.585-62.626,46.156-114.86,108.686-118.913l100.011-6.454v-34.488c0-8.267,6.701-14.968,14.968-14.968
	s14.968,6.701,14.968,14.968v48.521c0,7.892-6.128,14.429-14.004,14.936l-114.01,7.357c-46.424,3.01-81.87,41.79-80.694,88.285
	c1.17,46.383,39.835,84.117,86.19,84.117c1.322,0,2.741-0.036,4.335-0.111l200.498-9.85c0.245-0.012,0.491-0.018,0.736-0.018
	c55.097,0,86.697-31.606,86.697-86.714V70.526c0-4.683-3.809-8.494-8.493-8.494h-152.76c-4.683,0-8.494,3.811-8.494,8.494
	c0,8.267-6.701,14.968-14.968,14.968c-8.267,0-14.968-6.701-14.968-14.968c0-21.19,17.24-38.429,38.429-38.429h152.761
	c21.19,0,38.428,17.24,38.428,38.429v314.846c0,71.824-44.538,116.49-116.255,116.647l-200.174,9.834
	C135.595,511.954,133.719,512,131.922,512z"/>
<path style="fill:#CFF09E;" d="M255.769,152.504h156.728c37.822,0,68.767-30.946,68.767-68.767l0,0
	c0-37.822-30.946-68.767-68.767-68.767H255.769c-37.822,0-68.767,30.946-68.767,68.767l0,0
	C187.002,121.558,217.947,152.504,255.769,152.504z"/>
<g>
	<path style="fill:#507C5C;" d="M412.497,167.472H255.769c-46.172,0-83.735-37.564-83.735-83.735
		C172.034,37.564,209.597,0,255.769,0h156.728c46.172,0,83.735,37.564,83.735,83.737
		C496.232,129.907,458.669,167.472,412.497,167.472z M255.769,29.935c-29.666,0-53.8,24.135-53.8,53.801s24.135,53.8,53.8,53.8
		h156.728c29.666,0,53.8-24.135,53.8-53.8s-24.134-53.801-53.8-53.801H255.769z"/>
	<path style="fill:#507C5C;" d="M304.383,503.652c-6.143,0-11.697-3.767-13.944-9.539c-5.399-13.872-8.136-28.531-8.136-43.571
		c0-44.152,24.101-84.72,62.897-105.874c7.256-3.956,16.349-1.283,20.307,5.977c3.957,7.258,1.281,16.349-5.977,20.307
		c-29.17,15.906-47.292,46.403-47.292,79.59c0,7.717,0.955,15.292,2.847,22.63l21.67-1.067c0.245-0.012,0.491-0.018,0.736-0.018
		c55.097,0,86.697-31.606,86.697-86.714c0-8.267,6.701-14.968,14.968-14.968s14.968,6.701,14.968,14.968
		c0,71.824-44.538,116.49-116.255,116.647l-32.745,1.614C304.877,503.647,304.628,503.652,304.383,503.652z"/>
</g>
<path style="fill:#CFF09E;" d="M119.966,295.241c-51.561,6.138-90.524,50.577-89.197,103.085
	c1.382,54.762,45.945,98.058,99.984,98.677L119.966,295.241z"/>
<path style="fill:#507C5C;" d="M130.753,511.972c-0.057,0-0.114,0-0.172,0c-30.097-0.346-58.528-12.181-80.054-33.324
	c-21.625-21.239-33.956-49.631-34.719-79.944c-0.736-29.075,9.359-57.176,28.428-79.125c18.992-21.862,45.259-35.783,73.963-39.199
	c4.112-0.492,8.238,0.745,11.405,3.41s5.089,6.521,5.311,10.654l10.787,201.762c0.22,4.133-1.278,8.171-4.143,11.158
	C138.733,510.309,134.829,511.972,130.753,511.972z M105.952,313.469c-36.183,11.295-61.213,45.184-60.219,84.479
	c1.037,41.125,30.278,74.714,69.143,82.427L105.952,313.469z"/>
<g>
</g>
<g>
</g>
<g>
</g>
<g>
</g>
<g>
</g>
<g>
</g>
<g>
</g>
<g>
</g>
<g>
</g>
<g>
</g>
<g>
</g>
<g>
</g>
<g>
</g>
<g>
</g>
<g>
</g>
</svg>
